<svg width="101" height="149" viewBox="0 0 101 149" fill="none" xmlns="http://www.w3.org/2000/svg">
<g clip-path="url(#clip0_1_863)">
<path d="M54.5563 7.03911C56.3818 7.03911 57.8617 5.56794 57.8617 3.75317C57.8617 1.93839 56.3818 0.467224 54.5563 0.467224C52.7308 0.467224 51.251 1.93839 51.251 3.75317C51.251 5.56794 52.7308 7.03911 54.5563 7.03911Z" fill="#D0E9F9" stroke="#084F92" stroke-width="0.53" stroke-miterlimit="10"/>
<path d="M51.4758 148.995C73.9997 148.995 92.2589 147.797 92.2589 146.318C92.2589 144.84 73.9997 143.642 51.4758 143.642C28.9519 143.642 10.6926 144.84 10.6926 146.318C10.6926 147.797 28.9519 148.995 51.4758 148.995Z" fill="#0489BA"/>
<path d="M72.3552 115.714C71.3488 114.388 69.806 114.333 68.7076 115.582C68.0077 116.374 67.3793 117.38 66.7663 118.34C65.9591 119.604 65.0548 120.884 64.0229 121.555C65.6883 113.093 67.7778 108.411 70.0614 107.842C73.612 106.958 75.349 113.368 75.9722 121.443C75.2621 120.681 74.644 119.64 74.0871 118.604C73.5507 117.603 72.9938 116.557 72.3552 115.714Z" fill="#084F92"/>
<path d="M65.627 138.604C68.069 138.258 70.5059 137.192 71.9925 135.232C73.6988 132.977 73.893 129.95 73.8163 127.131C73.7091 123.215 73.2033 119.31 72.3144 115.496C72.3859 115.572 72.4676 115.633 72.534 115.719C73.2237 116.562 73.8214 117.608 74.3987 118.609C74.9965 119.64 75.6657 120.681 76.432 121.448C77.1013 129.472 76.5955 139.142 75.6453 144.937L59.1338 145.11C59.1338 145.11 59.4863 142.464 60.1249 138.583C61.9589 138.771 63.8032 138.868 65.627 138.609V138.604Z" fill="#AAD6F0"/>
<path d="M71.9874 135.226C70.5059 137.187 68.0639 138.253 65.6219 138.599C63.7981 138.858 61.9538 138.761 60.1198 138.573C60.8912 133.875 62.0764 127.37 63.558 121.549C64.6717 120.884 65.6475 119.599 66.5108 118.335C67.1699 117.375 67.8442 116.369 68.6003 115.577C69.7089 114.409 71.2262 114.399 72.3093 115.485C73.1931 119.305 73.7039 123.205 73.8112 127.121C73.8879 129.945 73.6937 132.966 71.9874 135.221V135.226Z" fill="white"/>
<path d="M67.6092 141.341C57.2589 141.92 58.2806 145.105 58.2806 145.105H67.6092H76.9378C76.9378 145.105 77.9595 141.92 67.6092 141.341Z" fill="white"/>
<path d="M26.1159 80.1323C26.1159 80.1323 34.009 81.6763 39.5775 82.4584C45.146 83.2354 43.4806 92.0724 22.4325 88.5072L26.1108 80.1323H26.1159Z" fill="#084F92"/>
<path d="M40.1395 118.878C39.3272 117.527 38.5813 116.44 37.7026 115.13C37.0129 114.099 36.6502 111.879 35.5467 111.346C37.0998 108.279 39.8431 106.719 42.7245 111.448C44.1498 113.789 44.9928 118.172 45.4423 122.194C44.9161 122.194 44.1907 122.387 43.7054 122.194C42.2392 121.61 40.9466 120.229 40.1343 118.878H40.1395Z" fill="#084F92"/>
<path d="M38.6119 142.25C40.2467 139.757 40.5379 136.648 40.497 133.683C40.4 126.511 37.3756 114.901 34.6322 112.53C34.7548 112.179 34.8825 111.834 35.0358 111.504C35.138 111.285 35.4138 111.194 35.6233 111.316C36.6246 111.905 37.4573 112.804 38.1062 113.774C39.0411 115.165 39.6848 116.73 40.5481 118.167C41.4115 119.604 42.561 120.96 44.1243 121.585C44.5227 121.742 44.957 121.834 45.3912 121.869C45.6058 121.885 45.7897 122.037 45.8101 122.255C46.7706 131.356 45.8663 142.123 44.9366 145.303H35.4803C36.7166 144.485 37.8098 143.479 38.6119 142.255V142.25Z" fill="#AAD6F0"/>
<path d="M29.7023 142.408C29.7023 142.007 30.4328 137.034 31.3064 131.346C31.6998 128.776 32.1289 126.069 32.5274 123.561C33.2273 119.193 33.8557 115.455 34.1316 114.216C34.2593 113.642 34.433 113.083 34.6271 112.535C37.3705 114.906 40.3949 126.516 40.492 133.688C40.5328 136.654 40.2416 139.762 38.6068 142.255C37.8047 143.479 36.7115 144.49 35.4752 145.303H26.305C25.7226 143.571 29.6972 142.408 29.6972 142.408H29.7023Z" fill="white"/>
<path d="M70.5978 85.2365C70.2555 83.9718 69.9439 82.8241 69.6936 81.8489C69.1214 79.6651 67.2823 78.0043 64.9731 77.593C62.2859 77.1156 59.3126 76.6026 54.9293 76.6026C50.7401 76.6026 48.0427 77.1359 45.6058 77.6234C43.5725 78.0297 41.9122 79.4365 41.2225 81.3207C41.197 81.3918 41.1663 81.4731 41.1408 81.5442C50.6482 84.4594 60.6664 85.6834 70.6029 85.2365H70.5978Z" fill="#89C1DF"/>
<path d="M45.3197 113.886C52.1297 115.587 59.9512 114.571 65.3767 110.3C69.0652 107.395 71.4254 103.205 72.5136 98.8373C72.7792 97.7606 72.9734 96.6687 73.1062 95.5717C72.8865 94.4848 72.6464 93.398 72.4012 92.3314C71.8086 89.787 71.1649 87.3441 70.5978 85.2364C60.6562 85.6884 50.643 84.4594 41.1356 81.5442C39.4293 86.2115 35.94 95.3126 35.5824 103.342C35.5007 105.15 35.5773 106.902 35.8685 108.533C35.9196 108.817 35.9911 109.086 36.0729 109.35C36.2108 109.437 37.7128 110.386 39.6081 111.808C41.4268 112.682 43.3324 113.388 45.3197 113.886Z" fill="white"/>
<path d="M73.847 109.35C73.9236 109.086 74.0003 108.822 74.0514 108.538C74.6593 105.135 74.0667 100.341 73.1062 95.5717C72.9734 96.6687 72.7844 97.7555 72.5136 98.8373C71.4306 103.21 69.0652 107.4 65.3767 110.3C59.9512 114.571 52.1297 115.587 45.3197 113.886C43.3324 113.388 41.4269 112.682 39.6082 111.808C41.2174 113.017 43.1025 114.556 44.6607 116.196C44.9928 116.547 45.4015 116.811 45.8613 116.943C47.5727 117.431 49.3301 117.781 50.9956 118.025C53.6266 118.406 56.2933 118.406 58.9192 118.025C60.5745 117.781 62.3268 117.441 64.028 116.953C64.4929 116.821 64.9067 116.552 65.2388 116.201C68.6616 112.601 73.6784 109.452 73.8419 109.345L73.847 109.35Z" fill="#AAD6F0"/>
<path d="M27.7559 83.8804C26.1313 85.4498 23.5667 85.5056 21.3444 85.0841C16.5575 84.1801 12.2201 81.5188 8.78707 78.0805C7.67847 76.9733 6.66693 75.7798 5.72181 74.5305C5.41529 73.8093 5.28757 73.3776 5.28757 73.3776C3.30538 68.1668 6.80487 70.6859 6.80487 70.6859C3.87245 64.3374 8.46521 67.9687 8.46521 67.9687C7.98499 66.0744 7.90836 65.3938 8.38858 65.0739C9.42566 64.3832 11.1422 67.1815 11.1422 67.1815C11.0758 65.3786 10.8101 64.6828 11.5816 64.5609C12.7719 64.373 14.9431 69.4213 14.9431 69.4213C17.5843 64.9824 17.2114 71.661 17.2114 71.661C17.2114 71.661 19.822 74.7641 24.8234 77.6945C26.0036 78.3852 27.434 79.0201 28.8389 79.5686C29.2578 81.0617 28.8747 82.7885 27.7507 83.8753L27.7559 83.8804Z" fill="white"/>
<path d="M8.79217 78.0805C12.2252 81.5188 16.5626 84.1801 21.3495 85.0841C23.5718 85.5056 26.1364 85.4447 27.761 83.8804C28.8849 82.7936 29.2731 81.0617 28.8491 79.5736C30.8977 80.371 32.9055 80.9805 34.0447 81.3055C34.5965 81.4629 34.903 82.0267 34.7906 82.5853C33.1251 91.0668 23.3828 89.0049 23.3828 89.0049C11.3465 85.2567 6.98367 77.4609 5.73203 74.5305C6.67714 75.7747 7.68868 76.9683 8.79727 78.0805H8.79217Z" fill="#AAD6F0"/>
<path d="M12.9354 74.1394C12.9354 74.1394 12.9813 74.1394 13.0018 74.1344C13.1601 74.0988 13.2572 73.9414 13.2214 73.7839C12.5829 71.0414 14.565 70.0053 14.6468 69.9647C14.7898 69.8936 14.8511 69.7159 14.7745 69.5736C14.703 69.4314 14.5293 69.3705 14.3811 69.4416C14.3556 69.4518 11.8983 70.7113 12.6442 73.916C12.6748 74.0531 12.7974 74.1394 12.9302 74.1394H12.9354Z" fill="#AAD6F0"/>
<path d="M11.3465 68.3497C11.3465 68.3497 11.3874 68.3497 11.413 68.3446C11.5713 68.309 11.6684 68.1516 11.6377 67.9941L11.4436 67.1257C11.4079 66.9682 11.2495 66.8717 11.0911 66.9022C10.9327 66.9378 10.8357 67.0952 10.8663 67.2526L11.0605 68.1211C11.0911 68.2582 11.2137 68.3497 11.3465 68.3497Z" fill="#AAD6F0"/>
<path d="M9.01184 69.1318C9.06293 69.1318 9.11913 69.1166 9.16511 69.0861C9.30304 68.9997 9.34391 68.822 9.26217 68.6849L8.72575 67.8164C8.63891 67.6793 8.4601 67.6336 8.32216 67.7199C8.18423 67.8062 8.14336 67.984 8.2251 68.1211L8.76151 68.9896C8.81771 69.081 8.91478 69.1267 9.01184 69.1267V69.1318Z" fill="#AAD6F0"/>
<path d="M7.17268 71.4731C7.23399 71.4731 7.29529 71.4527 7.34638 71.4172C7.47921 71.3207 7.50475 71.1379 7.41279 71.0109L7.05007 70.5183C6.95301 70.3913 6.76909 70.3608 6.64137 70.4573C6.50854 70.5538 6.483 70.7366 6.57496 70.8636L6.93768 71.3563C6.99388 71.4324 7.08583 71.4781 7.17779 71.4781L7.17268 71.4731Z" fill="#AAD6F0"/>
<path d="M47.0056 104.261H62.8478L54.9702 90.1526L47.0056 104.261Z" fill="#084F92"/>
<path d="M58.5207 104.261V96.9175L54.9037 100.27L51.3327 96.9175L51.3429 104.246C51.3429 104.246 58.5769 104.261 58.5207 104.261Z" fill="white"/>
<path d="M54.9242 104.211C56.1713 104.211 57.1822 103.206 57.1822 101.966C57.1822 100.726 56.1713 99.721 54.9242 99.721C53.6771 99.721 52.6661 100.726 52.6661 101.966C52.6661 103.206 53.6771 104.211 54.9242 104.211Z" fill="#084F92"/>
<path d="M54.5563 7.03911C56.3818 7.03911 57.8617 5.56794 57.8617 3.75317C57.8617 1.93839 56.3818 0.467224 54.5563 0.467224C52.7308 0.467224 51.251 1.93839 51.251 3.75317C51.251 5.56794 52.7308 7.03911 54.5563 7.03911Z" fill="#AFDCF6" stroke="#084F92" stroke-width="0.53" stroke-miterlimit="10"/>
<path d="M57.7596 4.69275H51.4298C53.2128 9.20775 54.1528 15.5663 54.1528 22.6207C54.1528 29.6751 53.2128 36.0336 51.4298 40.5486H57.7596C55.9766 36.0336 55.0366 29.6751 55.0366 22.6207C55.0366 15.5663 55.9766 9.20775 57.7596 4.69275Z" fill="#008DB8"/>
<path d="M57.2333 65.6783C71.0985 59.3197 80.2585 44.2358 80.0337 29.1367C72.2786 21.2495 61.6933 18.2733 54.587 18.2733C42.7143 18.2733 15.9955 28.5679 19.4439 61.8133C19.4848 62.1942 19.5359 62.5751 19.5921 62.951C30.7036 69.7819 45.3044 71.143 57.2282 65.6783H57.2333Z" fill="white"/>
<path d="M80.0337 29.1367C80.2585 44.2358 71.1036 59.3197 57.2333 65.6782C45.3095 71.143 30.7036 69.7869 19.5972 62.951C20.4605 68.4055 23.3623 73.1389 27.5055 75.6783C32.5274 78.756 40.9211 81.722 54.5921 81.6712C67.9719 81.722 76.2941 78.8829 81.3517 75.8763C86.0722 73.0678 89.1988 67.5523 89.7863 61.2547C91.2065 46.1556 86.6444 35.861 80.0337 29.1367Z" fill="#C8E6F9"/>
<path d="M80.2942 43.5197C79.4768 41.8996 78.4449 40.4979 77.2596 39.2891C70.8584 32.7629 59.987 31.8183 54.587 31.8183C48.2062 31.8183 34.7651 32.7071 29.3702 43.5248C23.6688 54.9469 23.3368 66.0998 30.4635 70.8332C30.4941 70.8535 30.5248 70.8687 30.5554 70.889C37.7332 75.5716 54.587 75.9982 54.587 75.9982H54.6687C54.6687 75.9982 71.6656 75.5665 78.7923 70.8332C85.919 66.0998 86.0314 54.9265 80.2942 43.5248V43.5197Z" fill="#0B3B4D"/>
<path d="M57.1414 75.0993C57.1414 75.0993 40.2876 74.6727 33.1098 69.9901C33.0792 69.9698 33.0485 69.9546 33.0179 69.9342C25.8912 65.2009 26.2232 54.048 31.9246 42.6259C34.2695 37.923 38.1419 35.0992 42.2902 33.4029C37.2224 34.9214 32.1954 37.862 29.3702 43.5197C23.6688 54.9418 23.3368 66.0947 30.4635 70.8281C30.4941 70.8484 30.5248 70.8637 30.5554 70.884C37.7332 75.5666 54.587 75.9932 54.587 75.9932H54.6687C54.6687 75.9932 67.7063 75.6631 75.7321 72.3974C67.7727 74.8251 57.2231 75.0942 57.2231 75.0942H57.1414V75.0993Z" fill="#008DB8"/>
<path d="M78.3529 47.9027C77.8472 46.5111 77.2546 45.089 76.5444 43.6517C76.5393 43.6416 76.5342 43.6264 76.524 43.6162C75.4205 41.3765 73.5558 39.6091 71.3488 38.507C65.7292 35.6984 58.5361 34.9163 55.5424 34.9163C42.9748 34.9163 37.0283 38.7914 33.7229 45.5868C31.3575 50.4522 30.0701 55.0789 29.8658 59.0251C56.651 66.0337 74.2864 51.6762 78.3478 47.9027H78.3529Z" fill="#286084"/>
<path d="M54.5921 35.734C56.3245 35.734 57.7289 34.3379 57.7289 32.6157C57.7289 30.8934 56.3245 29.4973 54.5921 29.4973C52.8597 29.4973 51.4554 30.8934 51.4554 32.6157C51.4554 34.3379 52.8597 35.734 54.5921 35.734Z" fill="#00B1D1" stroke="#084F92" stroke-width="0.53" stroke-miterlimit="10"/>
<path d="M54.5921 79.8225C56.3245 79.8225 57.7289 78.4264 57.7289 76.7042C57.7289 74.9819 56.3245 73.5858 54.5921 73.5858C52.8597 73.5858 51.4554 74.9819 51.4554 76.7042C51.4554 78.4264 52.8597 79.8225 54.5921 79.8225Z" fill="#00B1D1" stroke="#084F92" stroke-width="0.53" stroke-miterlimit="10"/>
<path d="M85.1169 57.7808C86.8493 57.7808 88.2537 56.3847 88.2537 54.6625C88.2537 52.9403 86.8493 51.5441 85.1169 51.5441C83.3845 51.5441 81.9801 52.9403 81.9801 54.6625C81.9801 56.3847 83.3845 57.7808 85.1169 57.7808Z" fill="#00B1D1" stroke="#084F92" stroke-width="0.53" stroke-miterlimit="10"/>
<path d="M45.851 55.5411C47.0304 55.5411 47.9865 54.5907 47.9865 53.4182C47.9865 52.2457 47.0304 51.2953 45.851 51.2953C44.6717 51.2953 43.7156 52.2457 43.7156 53.4182C43.7156 54.5907 44.6717 55.5411 45.851 55.5411Z" fill="white"/>
<path d="M63.6346 55.5411C64.814 55.5411 65.7701 54.5907 65.7701 53.4182C65.7701 52.2457 64.814 51.2953 63.6346 51.2953C62.4552 51.2953 61.4991 52.2457 61.4991 53.4182C61.4991 54.5907 62.4552 55.5411 63.6346 55.5411Z" fill="white"/>
<path d="M50.2037 60.63C50.2037 60.63 54.2039 65.9322 59.5323 60.63H50.2037Z" fill="#7BCAE9"/>
<path d="M48.8346 6.92741C48.6966 7.00867 48.3339 6.72934 47.9865 6.09958C47.6391 5.47489 47.3632 4.48961 47.4194 3.39261C47.4807 2.2956 47.8588 1.3408 48.2675 0.756743C48.6762 0.167609 49.0696 -0.0761702 49.1973 0.0203258C49.4783 0.233633 48.7222 1.61505 48.6506 3.45355C48.528 5.29206 49.1411 6.74458 48.8397 6.92741H48.8346Z" fill="#9ED8EC"/>
<path d="M45.9992 5.46473C45.8562 5.53583 45.381 4.76386 45.4168 3.69225C45.4321 3.16406 45.565 2.69682 45.7182 2.38701C45.8715 2.07721 46.0299 1.91977 46.1065 1.95532C46.2649 2.0315 46.0401 2.77808 46.0247 3.70749C45.9941 4.6369 46.1627 5.40378 46.0043 5.46473H45.9992Z" fill="#9ED8EC"/>
<path d="M60.5489 6.92741C60.6868 7.00867 61.0496 6.72934 61.397 6.09958C61.7444 5.47489 62.0202 4.48961 61.964 3.39261C61.9027 2.2956 61.5247 1.3408 61.116 0.756743C60.7073 0.167609 60.3139 -0.0761702 60.1862 0.0203258C59.9052 0.233633 60.6613 1.61505 60.7328 3.45355C60.8554 5.29206 60.2424 6.74458 60.5438 6.92741H60.5489Z" fill="#9ED8EC"/>
<path d="M63.3843 5.46473C63.5273 5.53583 64.0024 4.76386 63.9667 3.69225C63.9514 3.16406 63.8185 2.69682 63.6653 2.38701C63.512 2.07721 63.3536 1.91977 63.277 1.95532C63.1186 2.0315 63.3434 2.77808 63.3587 3.70749C63.3894 4.6369 63.2208 5.40378 63.3792 5.46473H63.3843Z" fill="#9ED8EC"/>
<path d="M25.4723 59.9037C27.2046 59.9037 28.609 58.5076 28.609 56.7854C28.609 55.0632 27.2046 53.6671 25.4723 53.6671C23.7399 53.6671 22.3355 55.0632 22.3355 56.7854C22.3355 58.5076 23.7399 59.9037 25.4723 59.9037Z" fill="#00B1D1" stroke="#084F92" stroke-width="0.53" stroke-miterlimit="10"/>
<path d="M52.7938 32.5954C52.8756 31.7015 53.5193 30.9245 54.3878 30.6705C54.4848 30.64 54.587 30.6197 54.6841 30.6045C54.8578 30.5791 54.8578 30.3353 54.6841 30.3048C54.4491 30.2693 54.209 30.2642 53.9586 30.3048C52.9573 30.4724 52.1808 31.3409 52.1297 32.3516C52.099 32.961 52.3187 33.5146 52.6866 33.9209C52.8194 34.0682 53.0697 33.9158 52.9829 33.733C52.8296 33.3927 52.7581 33.0067 52.7938 32.5903V32.5954Z" fill="#AFDCF6"/>
<path d="M83.6609 54.891C83.7427 53.9972 84.3864 53.2201 85.2549 52.9662C85.3519 52.9357 85.4541 52.9154 85.5512 52.9001C85.7249 52.8748 85.7249 52.631 85.5512 52.6005C85.3162 52.5649 85.0761 52.5599 84.8257 52.6005C83.8244 52.7681 83.0479 53.6366 82.9968 54.6472C82.9661 55.2567 83.1858 55.8103 83.5536 56.2166C83.6865 56.3638 83.9368 56.2115 83.85 56.0286C83.6967 55.6884 83.6252 55.3024 83.6609 54.8859V54.891Z" fill="#AFDCF6"/>
<path d="M23.7046 56.8768C23.7863 55.9829 24.43 55.2059 25.2985 54.9519C25.3956 54.9215 25.4978 54.9012 25.5948 54.8859C25.7685 54.8605 25.7685 54.6168 25.5948 54.5863C25.3598 54.5507 25.1197 54.5456 24.8694 54.5863C23.8681 54.7539 23.0916 55.6223 23.0405 56.633C23.0098 57.2425 23.2295 57.796 23.5973 58.2023C23.7301 58.3496 23.9805 58.1973 23.8936 58.0144C23.7404 57.6741 23.6688 57.2882 23.7046 56.8717V56.8768Z" fill="#AFDCF6"/>
<path d="M56.2933 76.7448C56.2116 75.851 55.5679 75.0739 54.6994 74.82C54.6023 74.7895 54.5002 74.7692 54.4031 74.754C54.2294 74.7286 54.2294 74.4848 54.4031 74.4543C54.6381 74.4188 54.8782 74.4137 55.1285 74.4543C56.1299 74.6219 56.9064 75.4904 56.9575 76.5011C56.9881 77.1105 56.7685 77.6641 56.4006 78.0704C56.2678 78.2177 56.0175 78.0653 56.1043 77.8825C56.2576 77.5422 56.3291 77.1562 56.2933 76.7398V76.7448Z" fill="#AFDCF6"/>
<path d="M53.7952 93.2202H56.0583L60.8503 104.409H58.3419L57.3202 101.915L56.4364 99.7565H56.4415L54.9599 96.1557L53.4733 99.7565H53.4835L52.5946 101.915L51.5728 104.409H49.0031L53.7952 93.2202Z" fill="white"/>
<path d="M53.7287 101.077C53.7287 101.737 54.2652 102.271 54.9293 102.271C55.5934 102.271 56.1299 101.737 56.1299 101.077H53.7236H53.7287Z" fill="#1D1E1C"/>
<path opacity="0.5" d="M47.2815 99.6194C46.694 96.9277 47.6136 94.0176 49.9176 92.174C53.1668 89.5838 57.9128 90.0968 60.5183 93.3218C60.7686 93.6316 60.978 93.9566 61.1722 94.2867C61.116 94.3528 55.2409 101.255 47.2815 99.6143V99.6194Z" fill="#85CFED"/>
</g>
<defs>
<clipPath id="clip0_1_863">
<rect width="101" height="149" fill="white"/>
</clipPath>
</defs>
</svg>

