<svg width="20" height="35" viewBox="73 18 20 35" fill="none" xmlns="http://www.w3.org/2000/svg">
<path d="M85.8359 43.2201C86.9599 41.5441 86.6125 39.3095 86.076 37.3643C84.1807 30.4522 80.4309 24.0631 75.3426 18.9895C75.5673 18.893 75.8381 18.9184 76.0374 19.091C78.5968 21.2952 90.2908 31.0819 92.462 42.5599C92.6152 43.3623 92.4926 44.1902 92.0993 44.9063C90.9958 46.9022 88.6662 51.2445 86.2804 49.1826C86.2804 49.1826 84.2062 50.1323 83.5472 48.2684C83.5472 48.2684 82.2956 48.6899 81.6314 47.6335C81.1665 46.8971 81.3607 46.3029 81.3607 46.3029C81.3607 46.3029 79.7003 46.2369 79.8689 44.8859C79.8689 44.8809 79.8689 44.8758 79.8689 44.8707C79.8689 44.8707 79.8791 44.8707 79.8842 44.8758C81.9993 45.5056 84.6047 45.0434 85.8308 43.2201H85.8359Z" fill="#AAD6F0"/>
<path d="M73.4063 27.476C73.4063 27.476 72.7422 22.0773 75.0922 19.1774C75.1637 19.091 75.2557 19.0301 75.3528 18.9894C80.4411 24.0631 84.1858 30.4572 86.0863 37.3643C86.6227 39.3095 86.9701 41.539 85.8461 43.2201C84.6251 45.0434 82.0146 45.5055 79.8996 44.8758C79.8996 44.8758 79.8893 44.8758 79.8842 44.8707C80.0528 43.5604 80.247 43.0779 80.247 43.0779C80.247 43.0779 78.1932 35.6985 73.4114 27.476H73.4063Z" fill="white"/>
</svg>
